<svg width="18" height="18" viewBox="0 0 18 18" fill="none" xmlns="http://www.w3.org/2000/svg">
<path d="M9 0.771429C4.45548 0.771429 0.771429 4.45548 0.771429 9C0.771429 13.5445 4.45548 17.2286 9 17.2286C13.5445 17.2286 17.2286 13.5445 17.2286 9C17.2286 4.45548 13.5445 0.771429 9 0.771429Z" stroke="#78007A" stroke-width="1.5" stroke-linecap="round" stroke-linejoin="round"/>
<path d="M2.64011 14.2216C2.64011 14.2216 4.47427 11.88 8.99997 11.88C13.5257 11.88 15.3599 14.2216 15.3599 14.2216" stroke="#78007A" stroke-width="1.5" stroke-linecap="round" stroke-linejoin="round"/>
<path d="M9.00001 9C10.3634 9 11.4686 7.89482 11.4686 6.53143C11.4686 5.16807 10.3634 4.06285 9.00001 4.06285C7.63661 4.06285 6.53143 5.16807 6.53143 6.53143C6.53143 7.89482 7.63661 9 9.00001 9Z" stroke="#78007A" stroke-width="1.5" stroke-linecap="round" stroke-linejoin="round"/>
</svg>
