<svg width="54" height="54" viewBox="0 0 54 54" fill="none" xmlns="http://www.w3.org/2000/svg">
<g filter="url(#filter0_d_104_43)">
<path d="M28.9086 6.19116C28.4023 5.68499 27.7156 5.40063 26.9997 5.40063C26.2837 5.40063 25.5971 5.68499 25.0908 6.19116L6.19078 25.0912C5.69896 25.6004 5.42681 26.2824 5.43296 26.9903C5.43912 27.6983 5.72307 28.3755 6.22367 28.8761C6.72427 29.3767 7.40147 29.6606 8.1094 29.6668C8.81733 29.6729 9.49936 29.4008 10.0086 28.909L10.7997 28.1179V45.9001C10.7997 46.6161 11.0841 47.3029 11.5905 47.8092C12.0968 48.3156 12.7836 48.6001 13.4997 48.6001H18.8997C19.6158 48.6001 20.3025 48.3156 20.8089 47.8092C21.3152 47.3029 21.5997 46.6161 21.5997 45.9001V40.5001C21.5997 39.784 21.8841 39.0972 22.3905 38.5909C22.8968 38.0845 23.5836 37.8001 24.2997 37.8001H29.6997C30.4158 37.8001 31.1025 38.0845 31.6089 38.5909C32.1152 39.0972 32.3997 39.784 32.3997 40.5001V45.9001C32.3997 46.6161 32.6841 47.3029 33.1905 47.8092C33.6968 48.3156 34.3836 48.6001 35.0997 48.6001H40.4997C41.2158 48.6001 41.9025 48.3156 42.4089 47.8092C42.9152 47.3029 43.1997 46.6161 43.1997 45.9001V28.1179L43.9908 28.909C44.5 29.4008 45.182 29.6729 45.89 29.6668C46.5979 29.6606 47.2751 29.3767 47.7757 28.8761C48.2763 28.3755 48.5602 27.6983 48.5664 26.9903C48.5726 26.2824 48.3004 25.6004 47.8086 25.0912L28.9086 6.19116Z" fill="black" fill-opacity="0.62"/>
</g>
<defs>
<filter id="filter0_d_104_43" x="-34.8387" y="-24.3871" width="123.677" height="123.677" filterUnits="userSpaceOnUse" color-interpolation-filters="sRGB">
<feFlood flood-opacity="0" result="BackgroundImageFix"/>
<feColorMatrix in="SourceAlpha" type="matrix" values="0 0 0 0 0 0 0 0 0 0 0 0 0 0 0 0 0 0 127 0" result="hardAlpha"/>
<feOffset dy="10.4516"/>
<feGaussianBlur stdDeviation="17.4194"/>
<feColorMatrix type="matrix" values="0 0 0 0 0.841667 0 0 0 0 0.219258 0 0 0 0 0 0 0 0 0.4 0"/>
<feBlend mode="normal" in2="BackgroundImageFix" result="effect1_dropShadow_104_43"/>
<feBlend mode="normal" in="SourceGraphic" in2="effect1_dropShadow_104_43" result="shape"/>
</filter>
</defs>
</svg>
