<svg width="18" height="13" viewBox="0 0 18 13" fill="none" xmlns="http://www.w3.org/2000/svg">
<path d="M4.86275 8.95667C5.31501 8.95667 5.68165 8.59005 5.68165 8.13778C5.68165 7.6855 5.31501 7.31888 4.86275 7.31888C4.41049 7.31888 4.04385 7.6855 4.04385 8.13778C4.04385 8.59005 4.41049 8.95667 4.86275 8.95667Z" fill="#78007A" stroke="#78007A" stroke-width="1.5" stroke-linecap="round" stroke-linejoin="round"/>
<path d="M0.767717 4.04331V1.25906C0.767717 0.987697 0.987697 0.767717 1.25906 0.767717H16.6543C16.9257 0.767717 17.1457 0.987697 17.1457 1.25906V4.04331M0.767717 4.04331V11.7409C0.767717 12.0123 0.987697 12.2323 1.25906 12.2323H16.6543C16.9257 12.2323 17.1457 12.0123 17.1457 11.7409V4.04331M0.767717 4.04331H17.1457" stroke="#78007A" stroke-width="1.5" stroke-linecap="round" stroke-linejoin="round"/>
</svg>
