<svg width="38" height="32" viewBox="0 0 38 32" fill="none" xmlns="http://www.w3.org/2000/svg">
<g clip-path="url(#clip0_71_32)">
<path d="M13.1254 1.0525C9.36085 2.16167 6.1143 4.26691 3.86263 7.059C1.61095 9.85109 0.472838 13.1829 0.615456 16.5649C0.758073 19.947 2.17391 23.201 4.65499 25.8492C7.13607 28.4973 10.5516 30.3999 14.4 31.2775C17.5199 31.9612 20.7887 31.9913 23.9253 31.365C26.7668 30.8229 29.3938 29.6634 31.5491 28C33.7923 26.2159 35.4205 23.9462 36.2588 21.435C37.1695 18.7041 37.3317 15.8323 36.7327 13.04H19.2127V19.2125H29.3591C29.1563 20.197 28.7217 21.1366 28.0814 21.9751C27.4411 22.8136 26.6082 23.5338 25.6326 24.0925C24.3937 24.7888 22.997 25.2572 21.5322 25.4675C20.0632 25.6995 18.5564 25.6995 17.0874 25.4675C15.5984 25.2063 14.1899 24.6844 12.9517 23.935C10.9623 22.739 9.46857 21.0398 8.6836 19.08C7.88557 17.0835 7.88557 14.919 8.6836 12.9225C9.24236 11.523 10.1661 10.2488 11.3858 9.195C12.7816 7.96686 14.5487 7.08899 16.4933 6.65769C18.4379 6.22638 20.4848 6.25832 22.4094 6.75C23.9129 7.1418 25.2878 7.82669 26.4244 8.75C27.5684 7.78333 28.7105 6.81416 29.8507 5.8425C30.4394 5.32 31.0811 4.8225 31.6609 4.2875C29.9258 2.91629 27.8892 1.84926 25.6679 1.1475C21.6226 -0.10003 17.1963 -0.133556 13.1254 1.0525Z" fill="white"/>
<path d="M13.1253 1.05249C17.1959 -0.134368 21.6222 -0.101725 25.6678 1.14499C27.8896 1.85152 29.9252 2.92369 31.6579 4.29999C31.0692 4.83499 30.4481 5.33499 29.8476 5.85499C28.7055 6.82332 27.5644 7.78832 26.4243 8.74999C25.2878 7.82668 23.9129 7.1418 22.4093 6.74999C20.4853 6.25659 18.4385 6.22281 16.4934 6.65235C14.5483 7.08188 12.7801 7.95814 11.3828 9.18499C10.1631 10.2388 9.23935 11.513 8.68059 12.9125L2.57861 8.89999C4.76275 5.22139 8.54445 2.40755 13.1253 1.05249Z" fill="#E33629"/>
<path d="M0.959474 12.8751C1.28721 11.4946 1.83172 10.1576 2.57843 8.90015L8.6804 12.9226C7.88237 14.9192 7.88237 17.0836 8.6804 19.0801C6.64739 20.4135 4.6134 21.7535 2.57843 23.1001C0.709716 19.9409 0.139792 16.3414 0.959474 12.8751Z" fill="#F8BD00"/>
<path d="M19.2127 13.0374H36.7327C37.3317 15.8297 37.1696 18.7015 36.2588 21.4324C35.4206 23.9436 33.7924 26.2132 31.5491 27.9974C29.5799 26.6924 27.6018 25.3974 25.6326 24.0924C26.6089 23.5331 27.4422 22.8121 28.0826 21.9727C28.7229 21.1333 29.1571 20.1927 29.3591 19.2074H19.2127C19.2098 17.1524 19.2127 15.0949 19.2127 13.0374Z" fill="#587DBD"/>
<path d="M2.57568 23.1001C4.61066 21.7667 6.64465 20.4267 8.67766 19.0801C9.4642 21.0406 10.9601 22.7398 12.9517 23.9351C14.1937 24.681 15.6053 25.1987 17.0962 25.4551C18.5652 25.6871 20.072 25.6871 21.541 25.4551C23.0058 25.2448 24.4025 24.7764 25.6413 24.0801C27.6106 25.3851 29.5886 26.6801 31.5579 27.9851C29.4029 29.6494 26.7758 30.8098 23.9341 31.3526C20.7975 31.9788 17.5287 31.9488 14.4088 31.2651C11.9412 30.7055 9.6363 29.7191 7.63859 28.3676C5.52432 26.9416 3.79736 25.1449 2.57568 23.1001Z" fill="#319F43"/>
</g>
<defs>
<clipPath id="clip0_71_32">
<rect width="37.6774" height="32" fill="white"/>
</clipPath>
</defs>
</svg>
